# xmcd CD database file
#
# Track frame offsets:
#	150
#	16440
#	31470
#	54447
#	72135
#	86670
#	110448
#	129973
#	170873
#	192185
#
# Disc length: 2963 seconds
#
# Revision: 0
# Processed by: cddbd v1.5.1PL0 Copyright (c) Steve Scherf et al.
# Submitted via: CDex 1.51
#
DISCID=830b910a
DTITLE=Donnie Romano - Out of Time
DYEAR=2005
DGENRE=Blues
TTITLE0=Learn To Treat Me Right
TTITLE1=Ramblin' On My Mind
TTITLE2=Forgive Me
TTITLE3=Crossroad
TTITLE4=I'm a Man
TTITLE5=Sand
TTITLE6=Old Man
TTITLE7=The Offering/Third Stone From the Sun
TTITLE8=The Sky is Cryin'
TTITLE9=I Believe Your're In Love With Me
EXTD=YEAR: 2005
EXTT0=
EXTT1=
EXTT2=
EXTT3=
EXTT4=
EXTT5=
EXTT6=
EXTT7=
EXTT8=
EXTT9=
PLAYORDER=
